<?xml version="1.0" encoding="UTF-8" standalone="no"?>
<!-- Created with Inkscape (http://www.inkscape.org/) -->

<svg
   xmlns:dc="http://purl.org/dc/elements/1.1/"
   xmlns:cc="http://creativecommons.org/ns#"
   xmlns:rdf="http://www.w3.org/1999/02/22-rdf-syntax-ns#"
   xmlns:svg="http://www.w3.org/2000/svg"
   xmlns="http://www.w3.org/2000/svg"
   xmlns:sodipodi="http://sodipodi.sourceforge.net/DTD/sodipodi-0.dtd"
   xmlns:inkscape="http://www.inkscape.org/namespaces/inkscape"
   width="247"
   height="247"
   viewBox="0 0 247 247"
   id="svg2"
   version="1.1"
   inkscape:version="0.91 r13725"
   sodipodi:docname="sinh-pq.svg">
  <defs
     id="defs4">
    <marker
       inkscape:isstock="true"
       style="overflow:visible;"
       id="marker6280"
       refX="0.0"
       refY="0.0"
       orient="auto"
       inkscape:stockid="Arrow1Mend">
      <path
         transform="scale(0.4) rotate(180) translate(10,0)"
         style="fill-rule:evenodd;stroke:#9f9f9f;stroke-width:1pt;stroke-opacity:1;fill:#9f9f9f;fill-opacity:1"
         d="M 0.0,0.0 L 5.0,-5.0 L -12.5,0.0 L 5.0,5.0 L 0.0,0.0 z "
         id="path6282" />
    </marker>
    <marker
       inkscape:isstock="true"
       style="overflow:visible;"
       id="marker6144"
       refX="0.0"
       refY="0.0"
       orient="auto"
       inkscape:stockid="Arrow1Mend">
      <path
         transform="scale(0.4) rotate(180) translate(10,0)"
         style="fill-rule:evenodd;stroke:#9f9f9f;stroke-width:1pt;stroke-opacity:1;fill:#9f9f9f;fill-opacity:1"
         d="M 0.0,0.0 L 5.0,-5.0 L -12.5,0.0 L 5.0,5.0 L 0.0,0.0 z "
         id="path6146" />
    </marker>
    <marker
       inkscape:isstock="true"
       style="overflow:visible;"
       id="marker6014"
       refX="0.0"
       refY="0.0"
       orient="auto"
       inkscape:stockid="Arrow1Mend">
      <path
         transform="scale(0.4) rotate(180) translate(10,0)"
         style="fill-rule:evenodd;stroke:#9f9f9f;stroke-width:1pt;stroke-opacity:1;fill:#9f9f9f;fill-opacity:1"
         d="M 0.0,0.0 L 5.0,-5.0 L -12.5,0.0 L 5.0,5.0 L 0.0,0.0 z "
         id="path6016" />
    </marker>
    <marker
       inkscape:isstock="true"
       style="overflow:visible;"
       id="marker5890"
       refX="0.0"
       refY="0.0"
       orient="auto"
       inkscape:stockid="Arrow1Mend">
      <path
         transform="scale(0.4) rotate(180) translate(10,0)"
         style="fill-rule:evenodd;stroke:#9f9f9f;stroke-width:1pt;stroke-opacity:1;fill:#9f9f9f;fill-opacity:1"
         d="M 0.0,0.0 L 5.0,-5.0 L -12.5,0.0 L 5.0,5.0 L 0.0,0.0 z "
         id="path5892" />
    </marker>
    <marker
       inkscape:isstock="true"
       style="overflow:visible;"
       id="marker5772"
       refX="0.0"
       refY="0.0"
       orient="auto"
       inkscape:stockid="Arrow1Mend">
      <path
         transform="scale(0.4) rotate(180) translate(10,0)"
         style="fill-rule:evenodd;stroke:#9f9f9f;stroke-width:1pt;stroke-opacity:1;fill:#9f9f9f;fill-opacity:1"
         d="M 0.0,0.0 L 5.0,-5.0 L -12.5,0.0 L 5.0,5.0 L 0.0,0.0 z "
         id="path5774" />
    </marker>
    <marker
       inkscape:stockid="Arrow1Mend"
       orient="auto"
       refY="0.0"
       refX="0.0"
       id="Arrow1Mend"
       style="overflow:visible;"
       inkscape:isstock="true"
       inkscape:collect="always">
      <path
         id="path4257"
         d="M 0.0,0.0 L 5.0,-5.0 L -12.5,0.0 L 5.0,5.0 L 0.0,0.0 z "
         style="fill-rule:evenodd;stroke:#9f9f9f;stroke-width:1pt;stroke-opacity:1;fill:#9f9f9f;fill-opacity:1"
         transform="scale(0.4) rotate(180) translate(10,0)" />
    </marker>
    <marker
       inkscape:isstock="true"
       style="overflow:visible"
       id="marker5544"
       refX="0.0"
       refY="0.0"
       orient="auto"
       inkscape:stockid="Arrow1Mstart">
      <path
         transform="scale(0.4) translate(10,0)"
         style="fill-rule:evenodd;stroke:#9f9f9f;stroke-width:1pt;stroke-opacity:1;fill:#9f9f9f;fill-opacity:1"
         d="M 0.0,0.0 L 5.0,-5.0 L -12.5,0.0 L 5.0,5.0 L 0.0,0.0 z "
         id="path5546" />
    </marker>
    <marker
       inkscape:isstock="true"
       style="overflow:visible"
       id="marker5444"
       refX="0.0"
       refY="0.0"
       orient="auto"
       inkscape:stockid="Arrow1Mstart">
      <path
         transform="scale(0.4) translate(10,0)"
         style="fill-rule:evenodd;stroke:#9f9f9f;stroke-width:1pt;stroke-opacity:1;fill:#9f9f9f;fill-opacity:1"
         d="M 0.0,0.0 L 5.0,-5.0 L -12.5,0.0 L 5.0,5.0 L 0.0,0.0 z "
         id="path5446" />
    </marker>
    <marker
       inkscape:isstock="true"
       style="overflow:visible"
       id="marker5350"
       refX="0.0"
       refY="0.0"
       orient="auto"
       inkscape:stockid="Arrow1Mstart">
      <path
         transform="scale(0.4) translate(10,0)"
         style="fill-rule:evenodd;stroke:#9f9f9f;stroke-width:1pt;stroke-opacity:1;fill:#9f9f9f;fill-opacity:1"
         d="M 0.0,0.0 L 5.0,-5.0 L -12.5,0.0 L 5.0,5.0 L 0.0,0.0 z "
         id="path5352" />
    </marker>
    <marker
       inkscape:isstock="true"
       style="overflow:visible"
       id="marker5262"
       refX="0.0"
       refY="0.0"
       orient="auto"
       inkscape:stockid="Arrow1Mstart">
      <path
         transform="scale(0.4) translate(10,0)"
         style="fill-rule:evenodd;stroke:#9f9f9f;stroke-width:1pt;stroke-opacity:1;fill:#9f9f9f;fill-opacity:1"
         d="M 0.0,0.0 L 5.0,-5.0 L -12.5,0.0 L 5.0,5.0 L 0.0,0.0 z "
         id="path5264" />
    </marker>
    <marker
       inkscape:isstock="true"
       style="overflow:visible"
       id="marker5180"
       refX="0.0"
       refY="0.0"
       orient="auto"
       inkscape:stockid="Arrow1Mstart">
      <path
         transform="scale(0.4) translate(10,0)"
         style="fill-rule:evenodd;stroke:#9f9f9f;stroke-width:1pt;stroke-opacity:1;fill:#9f9f9f;fill-opacity:1"
         d="M 0.0,0.0 L 5.0,-5.0 L -12.5,0.0 L 5.0,5.0 L 0.0,0.0 z "
         id="path5182" />
    </marker>
    <marker
       inkscape:stockid="Arrow1Mstart"
       orient="auto"
       refY="0.0"
       refX="0.0"
       id="Arrow1Mstart"
       style="overflow:visible"
       inkscape:isstock="true"
       inkscape:collect="always">
      <path
         id="path4254"
         d="M 0.0,0.0 L 5.0,-5.0 L -12.5,0.0 L 5.0,5.0 L 0.0,0.0 z "
         style="fill-rule:evenodd;stroke:#9f9f9f;stroke-width:1pt;stroke-opacity:1;fill:#9f9f9f;fill-opacity:1"
         transform="scale(0.4) translate(10,0)" />
    </marker>
    <marker
       inkscape:isstock="true"
       style="overflow:visible"
       id="marker4958"
       refX="0.0"
       refY="0.0"
       orient="auto"
       inkscape:stockid="Arrow1Mstart">
      <path
         transform="scale(0.4) translate(10,0)"
         style="fill-rule:evenodd;stroke:#000000;stroke-width:1pt;stroke-opacity:0.24705882;fill:#000000;fill-opacity:0.24705882"
         d="M 0.0,0.0 L 5.0,-5.0 L -12.5,0.0 L 5.0,5.0 L 0.0,0.0 z "
         id="path4960" />
    </marker>
    <marker
       inkscape:isstock="true"
       style="overflow:visible"
       id="marker4888"
       refX="0.0"
       refY="0.0"
       orient="auto"
       inkscape:stockid="Arrow1Mstart">
      <path
         transform="scale(0.4) translate(10,0)"
         style="fill-rule:evenodd;stroke:#000000;stroke-width:1pt;stroke-opacity:0.24705882;fill:#000000;fill-opacity:0.24705882"
         d="M 0.0,0.0 L 5.0,-5.0 L -12.5,0.0 L 5.0,5.0 L 0.0,0.0 z "
         id="path4890" />
    </marker>
    <marker
       inkscape:isstock="true"
       style="overflow:visible"
       id="marker4824"
       refX="0.0"
       refY="0.0"
       orient="auto"
       inkscape:stockid="Arrow1Mstart">
      <path
         transform="scale(0.4) translate(10,0)"
         style="fill-rule:evenodd;stroke:#000000;stroke-width:1pt;stroke-opacity:0.24705882;fill:#000000;fill-opacity:0.24705882"
         d="M 0.0,0.0 L 5.0,-5.0 L -12.5,0.0 L 5.0,5.0 L 0.0,0.0 z "
         id="path4826" />
    </marker>
    <marker
       inkscape:isstock="true"
       style="overflow:visible"
       id="marker4766"
       refX="0.0"
       refY="0.0"
       orient="auto"
       inkscape:stockid="Arrow1Mstart">
      <path
         transform="scale(0.4) translate(10,0)"
         style="fill-rule:evenodd;stroke:#000000;stroke-width:1pt;stroke-opacity:0.24705882;fill:#000000;fill-opacity:0.24705882"
         d="M 0.0,0.0 L 5.0,-5.0 L -12.5,0.0 L 5.0,5.0 L 0.0,0.0 z "
         id="path4768" />
    </marker>
    <marker
       inkscape:isstock="true"
       style="overflow:visible"
       id="marker4756"
       refX="0.0"
       refY="0.0"
       orient="auto"
       inkscape:stockid="Arrow1Mstart">
      <path
         transform="scale(0.4) translate(10,0)"
         style="fill-rule:evenodd;stroke:#000000;stroke-width:1pt;stroke-opacity:0.24705882;fill:#000000;fill-opacity:0.24705882"
         d="M 0.0,0.0 L 5.0,-5.0 L -12.5,0.0 L 5.0,5.0 L 0.0,0.0 z "
         id="path4758" />
    </marker>
    <marker
       inkscape:isstock="true"
       style="overflow:visible;"
       id="marker4648"
       refX="0.0"
       refY="0.0"
       orient="auto"
       inkscape:stockid="Arrow1Mend">
      <path
         transform="scale(0.4) rotate(180) translate(10,0)"
         style="fill-rule:evenodd;stroke:#000000;stroke-width:1pt;stroke-opacity:0.24705882;fill:#000000;fill-opacity:0.24705882"
         d="M 0.0,0.0 L 5.0,-5.0 L -12.5,0.0 L 5.0,5.0 L 0.0,0.0 z "
         id="path4650" />
    </marker>
    <marker
       inkscape:isstock="true"
       style="overflow:visible;"
       id="marker4608"
       refX="0.0"
       refY="0.0"
       orient="auto"
       inkscape:stockid="Arrow1Mend">
      <path
         transform="scale(0.4) rotate(180) translate(10,0)"
         style="fill-rule:evenodd;stroke:#000000;stroke-width:1pt;stroke-opacity:0.24705882;fill:#000000;fill-opacity:0.24705882"
         d="M 0.0,0.0 L 5.0,-5.0 L -12.5,0.0 L 5.0,5.0 L 0.0,0.0 z "
         id="path4610" />
    </marker>
    <marker
       inkscape:isstock="true"
       style="overflow:visible;"
       id="marker4574"
       refX="0.0"
       refY="0.0"
       orient="auto"
       inkscape:stockid="Arrow1Mend">
      <path
         transform="scale(0.4) rotate(180) translate(10,0)"
         style="fill-rule:evenodd;stroke:#000000;stroke-width:1pt;stroke-opacity:0.24705882;fill:#000000;fill-opacity:0.24705882"
         d="M 0.0,0.0 L 5.0,-5.0 L -12.5,0.0 L 5.0,5.0 L 0.0,0.0 z "
         id="path4576" />
    </marker>
    <marker
       inkscape:isstock="true"
       style="overflow:visible;"
       id="marker4546"
       refX="0.0"
       refY="0.0"
       orient="auto"
       inkscape:stockid="Arrow1Mend">
      <path
         transform="scale(0.4) rotate(180) translate(10,0)"
         style="fill-rule:evenodd;stroke:#000000;stroke-width:1pt;stroke-opacity:0.24705882;fill:#000000;fill-opacity:0.24705882"
         d="M 0.0,0.0 L 5.0,-5.0 L -12.5,0.0 L 5.0,5.0 L 0.0,0.0 z "
         id="path4548" />
    </marker>
    <marker
       inkscape:isstock="true"
       style="overflow:visible;"
       id="marker4524"
       refX="0.0"
       refY="0.0"
       orient="auto"
       inkscape:stockid="Arrow1Mend">
      <path
         transform="scale(0.4) rotate(180) translate(10,0)"
         style="fill-rule:evenodd;stroke:#000000;stroke-width:1pt;stroke-opacity:0.24705882;fill:#000000;fill-opacity:0.24705882"
         d="M 0.0,0.0 L 5.0,-5.0 L -12.5,0.0 L 5.0,5.0 L 0.0,0.0 z "
         id="path4526" />
    </marker>
  </defs>
  <sodipodi:namedview
     id="base"
     pagecolor="#ffffff"
     bordercolor="#666666"
     borderopacity="1.0"
     inkscape:pageopacity="0.0"
     inkscape:pageshadow="2"
     inkscape:zoom="1.4142136"
     inkscape:cx="98.431458"
     inkscape:cy="83.586701"
     inkscape:document-units="px"
     inkscape:current-layer="layer1"
     showgrid="false"
     units="px"
     inkscape:snap-page="false"
     inkscape:object-paths="true"
     inkscape:snap-intersection-paths="true"
     inkscape:object-nodes="true"
     inkscape:snap-smooth-nodes="true"
     inkscape:snap-midpoints="true"
     inkscape:snap-grids="true"
     inkscape:snap-global="false"
     inkscape:window-width="1301"
     inkscape:window-height="743"
     inkscape:window-x="65"
     inkscape:window-y="0"
     inkscape:window-maximized="1" />
  <metadata
     id="metadata7">
    <rdf:RDF>
      <cc:Work
         rdf:about="">
        <dc:format>image/svg+xml</dc:format>
        <dc:type
           rdf:resource="http://purl.org/dc/dcmitype/StillImage" />
        <dc:title></dc:title>
      </cc:Work>
    </rdf:RDF>
  </metadata>
  <g
     inkscape:label="Layer 1"
     inkscape:groupmode="layer"
     id="layer1"
     transform="translate(0,-805.36216)">
    <g
       id="g4221"
       style="stroke:#000000;stroke-opacity:0.12156863"
       transform="translate(-3.8194906,4.1804517)">
      <path
         sodipodi:nodetypes="cc"
         inkscape:connector-curvature="0"
         id="path3378"
         d="m 127.5,797.36216 0,255.00004"
         style="fill:none;fill-opacity:0.75;fill-rule:evenodd;stroke:#000000;stroke-width:1px;stroke-linecap:butt;stroke-linejoin:miter;stroke-opacity:0.12156863" />
      <path
         style="fill:none;fill-opacity:0.75;fill-rule:evenodd;stroke:#000000;stroke-width:1px;stroke-linecap:butt;stroke-linejoin:miter;stroke-opacity:0.12156863"
         d="m 0,924.86216 255,0"
         id="path4219"
         inkscape:connector-curvature="0"
         sodipodi:nodetypes="cc" />
    </g>
    <g
       id="g6542">
      <path
         style="fill:none;fill-opacity:0.75;fill-rule:evenodd;stroke:#9f9f9f;stroke-width:1px;stroke-linecap:butt;stroke-linejoin:miter;stroke-opacity:1"
         d="m 123.68048,801.54261 0,127.50002 0,127.50007"
         id="path3342"
         inkscape:connector-curvature="0"
         sodipodi:nodetypes="ccc" />
      <path
         sodipodi:nodetypes="ccc"
         inkscape:connector-curvature="0"
         id="path3352"
         d="m 143.68048,801.54261 0,118.00002 0,137.00007"
         style="fill:none;fill-opacity:0.75;fill-rule:evenodd;stroke:#9f9f9f;stroke-width:1px;stroke-linecap:butt;stroke-linejoin:miter;stroke-opacity:1;marker-mid:url(#marker5444)" />
      <path
         style="fill:none;fill-opacity:0.75;fill-rule:evenodd;stroke:#9f9f9f;stroke-width:1px;stroke-linecap:butt;stroke-linejoin:miter;stroke-opacity:1;marker-mid:url(#marker5350)"
         d="m 163.68048,801.54261 0,105.00002 0,150.00007"
         id="path3354"
         inkscape:connector-curvature="0"
         sodipodi:nodetypes="ccc" />
      <path
         sodipodi:nodetypes="ccc"
         inkscape:connector-curvature="0"
         id="path3356"
         d="m 63.680481,801.54261 0,165.00002 -10e-7,90.00007"
         style="fill:none;fill-opacity:0.75;fill-rule:evenodd;stroke:#9f9f9f;stroke-width:1px;stroke-linecap:butt;stroke-linejoin:miter;stroke-opacity:1;marker-mid:url(#marker6144)" />
      <path
         style="fill:none;fill-opacity:0.75;fill-rule:evenodd;stroke:#9f9f9f;stroke-width:1px;stroke-linecap:butt;stroke-linejoin:miter;stroke-opacity:1;marker-mid:url(#marker6014)"
         d="m 83.680481,801.54261 4e-6,149.50002 -5e-6,105.50007"
         id="path3358"
         inkscape:connector-curvature="0"
         sodipodi:nodetypes="ccc" />
      <path
         sodipodi:nodetypes="ccc"
         inkscape:connector-curvature="0"
         id="path3360"
         d="m 103.68048,801.54261 0,137.50002 0,117.50007"
         style="fill:none;fill-opacity:0.75;fill-rule:evenodd;stroke:#9f9f9f;stroke-width:1px;stroke-linecap:butt;stroke-linejoin:miter;stroke-opacity:1;marker-mid:url(#marker5890)" />
      <path
         style="fill:none;fill-opacity:0.75;fill-rule:evenodd;stroke:#9f9f9f;stroke-width:1px;stroke-linecap:butt;stroke-linejoin:miter;stroke-opacity:1;marker-mid:url(#marker5772)"
         d="m 3.6804806,801.54261 -1.11e-5,241.00009 1.12e-5,14"
         id="path3362"
         inkscape:connector-curvature="0"
         sodipodi:nodetypes="ccc" />
      <path
         sodipodi:nodetypes="ccc"
         inkscape:connector-curvature="0"
         id="path3364"
         d="m 23.680481,801.54261 -1.3e-5,208.00009 1.2e-5,47"
         style="fill:none;fill-opacity:0.75;fill-rule:evenodd;stroke:#9f9f9f;stroke-width:1px;stroke-linecap:butt;stroke-linejoin:miter;stroke-opacity:1;marker-mid:url(#Arrow1Mend)" />
      <path
         style="fill:none;fill-opacity:0.75;fill-rule:evenodd;stroke:#9f9f9f;stroke-width:1px;stroke-linecap:butt;stroke-linejoin:miter;stroke-opacity:1;marker-mid:url(#marker6280)"
         d="m 43.680481,801.54261 -10e-7,184.00002 0,71.00007"
         id="path3366"
         inkscape:connector-curvature="0"
         sodipodi:nodetypes="ccc" />
      <path
         sodipodi:nodetypes="ccc"
         inkscape:connector-curvature="0"
         id="path3368"
         d="m 223.68048,801.54261 0,47.50002 0,207.50007"
         style="fill:none;fill-opacity:0.75;fill-rule:evenodd;stroke:#9f9f9f;stroke-width:1px;stroke-linecap:butt;stroke-linejoin:miter;stroke-opacity:1;marker-mid:url(#marker5262)" />
      <path
         style="fill:none;fill-opacity:0.75;fill-rule:evenodd;stroke:#9f9f9f;stroke-width:1px;stroke-linecap:butt;stroke-linejoin:miter;stroke-opacity:1;marker-mid:url(#marker5180)"
         d="m 243.68048,801.54261 0,13.50002 0,241.50007"
         id="path3370"
         inkscape:connector-curvature="0"
         sodipodi:nodetypes="ccc" />
      <path
         sodipodi:nodetypes="ccc"
         inkscape:connector-curvature="0"
         id="path3374"
         d="m 183.68048,801.54261 0,90.00002 0,165.00007"
         style="fill:none;fill-opacity:0.75;fill-rule:evenodd;stroke:#9f9f9f;stroke-width:1px;stroke-linecap:butt;stroke-linejoin:miter;stroke-opacity:1;marker-mid:url(#Arrow1Mstart)" />
      <path
         style="fill:none;fill-opacity:0.75;fill-rule:evenodd;stroke:#9f9f9f;stroke-width:1px;stroke-linecap:butt;stroke-linejoin:miter;stroke-opacity:1;marker-mid:url(#marker5544)"
         d="m 203.68048,801.54261 0,71.50002 0,183.50007"
         id="path3376"
         inkscape:connector-curvature="0"
         sodipodi:nodetypes="ccc" />
      <path
         sodipodi:nodetypes="cc"
         inkscape:connector-curvature="0"
         id="path3384"
         d="m -56.319518,801.54261 -10e-7,255.00009"
         style="fill:none;fill-opacity:0.75;fill-rule:evenodd;stroke:#9f9f9f;stroke-width:1px;stroke-linecap:butt;stroke-linejoin:miter;stroke-opacity:1" />
      <path
         style="fill:none;fill-opacity:0.75;fill-rule:evenodd;stroke:#9f9f9f;stroke-width:1px;stroke-linecap:butt;stroke-linejoin:miter;stroke-opacity:1"
         d="m -36.319518,801.54261 -10e-7,127.50002 0,127.50007"
         id="path3386"
         inkscape:connector-curvature="0"
         sodipodi:nodetypes="ccc" />
      <path
         sodipodi:nodetypes="ccc"
         inkscape:connector-curvature="0"
         id="path3388"
         d="m -16.319519,801.54261 0,127.50002 0,127.50007"
         style="fill:none;fill-opacity:0.75;fill-rule:evenodd;stroke:#9f9f9f;stroke-width:1px;stroke-linecap:butt;stroke-linejoin:miter;stroke-opacity:1" />
      <path
         style="fill:none;fill-opacity:0.75;fill-rule:evenodd;stroke:#9f9f9f;stroke-width:1px;stroke-linecap:butt;stroke-linejoin:miter;stroke-opacity:1"
         d="m 263.68048,801.54261 0,127.50002 0,127.50007"
         id="path3390"
         inkscape:connector-curvature="0"
         sodipodi:nodetypes="ccc" />
      <path
         sodipodi:nodetypes="ccc"
         inkscape:connector-curvature="0"
         id="path3392"
         d="m 283.68048,801.54261 0,127.50002 0,127.50007"
         style="fill:none;fill-opacity:0.75;fill-rule:evenodd;stroke:#9f9f9f;stroke-width:1px;stroke-linecap:butt;stroke-linejoin:miter;stroke-opacity:1" />
      <path
         style="fill:none;fill-opacity:0.75;fill-rule:evenodd;stroke:#9f9f9f;stroke-width:1px;stroke-linecap:butt;stroke-linejoin:miter;stroke-opacity:1"
         d="m 303.68048,801.54261 0,255.00009"
         id="path3394"
         inkscape:connector-curvature="0"
         sodipodi:nodetypes="cc" />
    </g>
    <path
       style="fill:none;fill-opacity:0.75;fill-rule:evenodd;stroke:#000000;stroke-width:2;stroke-linecap:butt;stroke-linejoin:miter;stroke-miterlimit:4;stroke-dasharray:none;stroke-opacity:1"
       d="M 0.18565935,1056.5426 C 27.185659,987.02631 84.685704,951.55625 123.68048,929.04261 c 38.99478,-22.51364 96.49483,-58 123.49483,-127.5"
       id="path3350"
       inkscape:connector-curvature="0"
       sodipodi:nodetypes="czc" />
    <g
       transform="translate(529.15936,3.150326)"
       style="font-style:normal;font-variant:normal;font-weight:normal;font-stretch:normal;font-size:18px;line-height:125%;font-family:Serif;-inkscape-font-specification:Sans;letter-spacing:0px;word-spacing:0px;fill:#000000;fill-opacity:0.49803922;stroke:none;stroke-width:1px;stroke-linecap:butt;stroke-linejoin:miter;stroke-opacity:1"
       id="text6428">
      <path
         inkscape:connector-curvature="0"
         d="m -409.7079,808.9937 c 0,-1.404 -0.774,-2.25 -2.07,-2.25 -1.17,0 -2.034,0.576 -3.078,2.034 l 0.558,-1.962 c 0,0 -0.036,-0.072 -0.09,-0.072 l -0.018,0 -2.772,0.396 0.036,0.27 c 0.54,0 1.17,0 1.17,0.486 0,0.216 -0.63,2.7 -1.278,5.094 l -1.044,4.032 c -0.18,0.828 -0.432,1.044 -1.206,1.062 l 0,0.288 3.69,0 0,-0.27 c -0.846,0 -1.152,-0.144 -1.152,-0.54 0,-0.252 0.306,-1.602 0.666,-2.988 0.45,0.234 0.774,0.306 1.188,0.306 2.628,0 5.4,-3.006 5.4,-5.886 z m -1.62,0.054 c 0,1.188 -0.486,2.682 -1.242,3.78 -0.774,1.134 -1.656,1.71 -2.61,1.71 -0.504,0 -0.864,-0.27 -0.864,-0.666 0,-0.612 0.63,-2.952 1.17,-4.302 0.486,-1.224 1.53,-2.106 2.43,-2.052 0.774,0.036 1.116,0.504 1.116,1.53 z"
         style="font-style:italic;font-variant:normal;font-weight:normal;font-stretch:normal;font-family:'TeX Gyre Termes';-inkscape-font-specification:'TeX Gyre Termes Italic';fill:#000000;fill-opacity:0.49803922"
         id="path6478" />
    </g>
    <g
       transform="translate(529.15936,3.150326)"
       style="font-style:normal;font-variant:normal;font-weight:normal;font-stretch:normal;font-size:18px;line-height:125%;font-family:Serif;-inkscape-font-specification:Sans;letter-spacing:0px;word-spacing:0px;fill:#000000;fill-opacity:0.49803922;stroke:none;stroke-width:1px;stroke-linecap:butt;stroke-linejoin:miter;stroke-opacity:1"
       id="text6451">
      <path
         inkscape:connector-curvature="0"
         d="m -291.5759,941.8717 0,-0.324 -0.306,0 c -0.666,0 -1.026,-0.18 -1.062,-0.45 0,-0.054 0.018,-0.126 0.072,-0.27 l 2.916,-10.314 -1.314,0 -0.27,0.846 c -0.288,-0.828 -0.648,-1.116 -1.386,-1.116 -2.394,0 -5.274,3.312 -5.274,6.048 0,1.278 0.702,2.088 1.836,2.088 1.278,0 2.106,-0.648 3.708,-2.952 l -1.566,5.202 c -0.234,0.72 -0.522,0.882 -1.692,0.954 l 0,0.288 4.338,0 z m -0.234,-10.152 c 0,1.494 -1.188,3.996 -2.412,5.058 -0.468,0.414 -0.972,0.648 -1.422,0.648 -0.63,0 -1.008,-0.54 -1.008,-1.386 0,-1.332 0.936,-3.312 2.106,-4.518 0.558,-0.558 1.152,-0.882 1.674,-0.882 0.594,0 1.062,0.486 1.062,1.08 z"
         style="font-style:italic;font-variant:normal;font-weight:normal;font-stretch:normal;font-family:'TeX Gyre Termes';-inkscape-font-specification:'TeX Gyre Termes';fill:#000000;fill-opacity:0.49803922"
         id="path6475" />
    </g>
  </g>
</svg>
